# xmcd
#
# Track frame offsets:
#	151
#	14463
#	29063
#	44805
#	59023
#	76436
#	91016
#	103635
#	118689
#	130344
#	143950
#
# Disc length: 2060 seconds
#
# Revision: 1
# Processed by: cddbd v1.5.2PL0 Copyright (c) Steve Scherf et al.
# Submitted via: audiograbber 1.83.01
#
DISCID=9f080a0b
DTITLE=Jim Blackie - I´m Back Jim Blackie
DYEAR=5005
DGENRE=Country
TTITLE0=I Don´t Need You Baby
TTITLE1=I Love You
TTITLE2=Someone
TTITLE3=We All Need Love
TTITLE4=The March
TTITLE5=The New Cell Phone
TTITLE6=Tribute To Johnny
TTITLE7=You Tell Me You Like Me
TTITLE8=Sunshine And Rain
TTITLE9=Self Imposed Exile
TTITLE10=It All Fells The Same
EXTD=
EXTT0=
EXTT1=
EXTT2=
EXTT3=
EXTT4=
EXTT5=
EXTT6=
EXTT7=
EXTT8=
EXTT9=
EXTT10=
PLAYORDER=
